<?xml version="1.0" encoding="UTF-8" standalone="no"?>
<svg width="139px" height="29px" viewBox="0 0 139 29" version="1.1" xmlns="http://www.w3.org/2000/svg" xmlns:xlink="http://www.w3.org/1999/xlink">
    <!-- Generator: Sketch 3.7.1 (28215) - http://www.bohemiancoding.com/sketch -->
    <title>logo-2</title>
    <desc>Created with Sketch.</desc>
    <defs></defs>
    <g id="Page-1" stroke="none" stroke-width="1" fill="none" fill-rule="evenodd">
        <g id="logo-2">
            <path d="M27.892,27 L33.436,27 L33.436,6.912 L41.104,6.912 L41.104,1.8 L20.224,1.8 L20.224,6.912 L27.892,6.912 L27.892,27 Z M42.616,27 L48.088,27 L48.088,19.872 C48.088,15.264 50.32,13.068 53.956,13.068 L54.244,13.068 L54.244,7.344 C51.004,7.2 49.204,8.928 48.088,11.592 L48.088,7.704 L42.616,7.704 L42.616,27 Z M62.236,27.36 C64.9,27.36 66.736,26.388 68.068,24.912 L68.068,27 L73.36,27 L73.36,15.804 C73.36,13.212 72.712,11.088 71.272,9.648 C69.904,8.28 67.744,7.488 64.756,7.488 C61.48,7.488 59.392,8.1 57.268,9.036 L58.636,13.212 C60.4,12.564 61.876,12.168 63.964,12.168 C66.7,12.168 68.104,13.428 68.104,15.696 L68.104,16.02 C66.736,15.552 65.332,15.228 63.388,15.228 C58.816,15.228 55.612,17.172 55.612,21.384 L55.612,21.456 C55.612,25.272 58.6,27.36 62.236,27.36 L62.236,27.36 Z M63.892,23.58 C62.128,23.58 60.904,22.716 60.904,21.24 L60.904,21.168 C60.904,19.44 62.344,18.504 64.684,18.504 C66.016,18.504 67.24,18.792 68.176,19.224 L68.176,20.196 C68.176,22.176 66.448,23.58 63.892,23.58 L63.892,23.58 Z M85.996,27.36 C88.84,27.36 90.676,26.028 92.008,24.228 L92.008,27 L97.48,27 L97.48,0.72 L92.008,0.72 L92.008,10.224 C90.712,8.676 88.912,7.344 85.996,7.344 C81.424,7.344 77.212,10.872 77.212,17.316 L77.212,17.388 C77.212,23.832 81.496,27.36 85.996,27.36 L85.996,27.36 Z M87.4,22.716 C84.844,22.716 82.684,20.592 82.684,17.388 L82.684,17.316 C82.684,14.076 84.844,11.988 87.4,11.988 C89.956,11.988 92.08,14.112 92.08,17.316 L92.08,17.388 C92.08,20.592 89.956,22.716 87.4,22.716 L87.4,22.716 Z M111.52,27.432 C115.012,27.432 117.604,26.064 119.404,23.832 L116.272,21.06 C114.76,22.464 113.428,23.04 111.592,23.04 C109.144,23.04 107.416,21.744 106.876,19.26 L120.304,19.26 C120.34,18.756 120.376,18.252 120.376,17.82 C120.376,12.348 117.424,7.344 110.98,7.344 C105.364,7.344 101.44,11.88 101.44,17.388 L101.44,17.46 C101.44,23.364 105.724,27.432 111.52,27.432 L111.52,27.432 Z M106.804,15.84 C107.236,13.356 108.712,11.736 110.98,11.736 C113.284,11.736 114.724,13.392 115.048,15.84 L106.804,15.84 Z M131.212,27.36 C135.388,27.36 138.592,25.416 138.592,21.132 L138.592,21.06 C138.592,17.532 135.46,16.236 132.76,15.336 C130.672,14.616 128.836,14.112 128.836,13.032 L128.836,12.96 C128.836,12.204 129.52,11.628 130.852,11.628 C132.256,11.628 134.164,12.312 136.072,13.428 L138.16,9.648 C136.072,8.244 133.408,7.416 130.96,7.416 C127.072,7.416 123.904,9.612 123.904,13.536 L123.904,13.608 C123.904,17.352 126.964,18.612 129.664,19.404 C131.788,20.052 133.66,20.448 133.66,21.636 L133.66,21.708 C133.66,22.572 132.94,23.148 131.356,23.148 C129.556,23.148 127.36,22.356 125.272,20.844 L122.932,24.444 C125.488,26.46 128.512,27.36 131.212,27.36 L131.212,27.36 Z" id="Trades" fill="#343E49"></path>
            <path d="M8.08374206,25.766325 C8.08374206,26.6592798 7.36031266,27.3836158 6.46645127,27.3836158 C5.57258989,27.3836158 4.84916049,26.6592798 4.84916049,25.766325 C4.84916049,24.8733702 5.57258989,24.1490342 6.46645127,24.1490342 C7.36031266,24.1490342 8.08374206,24.8733702 8.08374206,25.766325 M11.0871526,0.243228204 C10.8577946,0.00752439097 10.5096782,-0.0631867531 10.2041698,0.0610110256 C9.90228763,0.183395698 9.7037525,0.480745124 9.70193939,0.808917357 L9.7037525,4.73882517 L8.42551259,4.73882517 L4.51192273,4.73882517 L3.23458937,4.73882517 L3.23186971,0.808917357 C3.23458937,0.480745124 3.03605424,0.183395698 2.73326549,0.0591979193 C2.42775709,-0.0613736468 2.07782758,0.00752439097 1.84937619,0.239601992 C0.705306141,1.40089655 -0.00271185232,2.98101865 7.8070698e-06,4.73882517 C-0.00271185232,7.50562532 1.74874879,9.85178482 4.19281603,10.776469 L3.23186971,24.1490342 L3.23186971,25.766325 C3.23458937,27.5467953 4.68870059,29 6.46645127,29 C8.24964128,29 9.7037525,27.5467953 9.70193939,25.766325 L9.70193939,24.1490342 L8.74461929,10.776469 C11.1895931,9.85178482 12.9383341,7.50834498 12.9383341,4.73882517 C12.9374275,2.98101865 12.2275964,1.40089655 11.0871526,0.243228204" id="icon" fill="#53B153"></path>
        </g>
    </g>
</svg>